<svg width="42" height="42" viewBox="0 0 42 42" fill="none" xmlns="http://www.w3.org/2000/svg">
<path d="M40.7231 15.888L37.567 15.2019C37.2926 14.3617 36.9526 13.5421 36.5513 12.7527L38.2985 10.0349C38.6106 9.54928 38.5419 8.91174 38.134 8.50383L33.2173 3.58709C32.8094 3.17919 32.1719 3.11058 31.6863 3.42261L28.9685 5.16982C28.179 4.7685 27.3594 4.42858 26.5192 4.15414L25.8331 0.998072C25.7106 0.434153 25.2112 0.0318909 24.6341 0.0318909H17.681C17.1039 0.0318909 16.6046 0.434153 16.4821 0.998072L15.796 4.15414C14.9557 4.42858 14.1362 4.7685 13.3467 5.16982L10.6289 3.42261C10.1433 3.11058 9.50576 3.17919 9.09786 3.58709L4.18111 8.50383C3.77321 8.91174 3.7046 9.54928 4.01664 10.0349L5.76384 12.7527C5.36252 13.5421 5.0226 14.3617 4.74816 15.2019L1.5921 15.888C1.02818 16.0108 0.625916 16.5099 0.625916 17.087V24.0401C0.625916 24.6172 1.02818 25.1163 1.5921 25.2391L4.74816 25.9252C5.0226 26.7654 5.36252 27.585 5.76384 28.3745L4.01664 31.0922C3.7046 31.5778 3.77321 32.2154 4.18111 32.6233L9.09786 37.54C9.50576 37.9479 10.1433 38.0165 10.6289 37.7045L13.3467 35.9573C14.1362 36.3586 14.9557 36.6985 15.796 36.973L16.4821 40.129C16.6046 40.693 17.1039 41.0952 17.681 41.0952H24.6341C25.2112 41.0952 25.7106 40.693 25.8331 40.129L26.5192 36.973C27.3594 36.6985 28.179 36.3586 28.9685 35.9573L31.6863 37.7045C32.1719 38.0165 32.8094 37.9482 33.2173 37.54L38.134 32.6233C38.5419 32.2154 38.6106 31.5778 38.2985 31.0922L36.5513 28.3745C36.9526 27.585 37.2926 26.7654 37.567 25.9252L40.7231 25.2391C41.287 25.1163 41.6892 24.6172 41.6892 24.0401V17.087C41.6892 16.5099 41.287 16.0108 40.7231 15.888V15.888ZM28.5195 20.5636C28.5195 24.6228 25.2169 27.9255 21.1576 27.9255C17.0983 27.9255 13.7956 24.6228 13.7956 20.5636C13.7956 16.5043 17.0983 13.2016 21.1576 13.2016C25.2169 13.2016 28.5195 16.5043 28.5195 20.5636V20.5636Z" fill="black"/>
</svg>
