<svg width="26" height="25" viewBox="0 0 26 25" fill="none" xmlns="http://www.w3.org/2000/svg">
<g opacity="0.1" clip-path="url(#clip0_1008_458)">
<path d="M1.34466 22.0183H24.5107C24.8122 22.0183 25.0566 21.774 25.0566 21.4725V20.9812C25.0569 20.973 25.0591 20.9654 25.0591 20.9571C25.0591 20.868 25.0377 20.7839 24.9998 20.7097L22.6309 14.7465V3.65449C22.6309 3.353 22.3866 3.10866 22.0851 3.10866H3.77042C3.46894 3.10866 3.22459 3.353 3.22459 3.65449V14.7465L0.837315 20.7556C0.826624 20.7825 0.819141 20.8099 0.812845 20.8376C0.811301 20.8446 0.810113 20.8516 0.808806 20.8587C0.802867 20.8906 0.799184 20.9228 0.799066 20.955C0.799066 20.9557 0.798828 20.9564 0.798828 20.9571V21.4725C0.798828 21.774 1.04317 22.0183 1.34466 22.0183ZM10.5802 20.2568L11.0795 18.7126H14.7759L15.2752 20.2568H10.5802ZM4.82929 4.5012H21.0262V14.0042H4.82929V4.5012Z" fill="black"/>
</g>
<defs>
<clipPath id="clip0_1008_458">
<rect width="24.2602" height="24.2602" fill="white" transform="translate(0.798828 0.433441)"/>
</clipPath>
</defs>
</svg>
