<svg width="30" height="31" viewBox="0 0 30 31" fill="none" xmlns="http://www.w3.org/2000/svg">
<g opacity="0.1" clip-path="url(#clip0_1008_470)">
<path d="M27.8493 2.35724H2.00844C1.06284 2.35724 0.293335 3.12675 0.293335 4.07234V21.109C0.293335 22.0546 1.06284 22.8241 2.00844 22.8241H27.8493C28.7949 22.8241 29.5644 22.0546 29.5644 21.109V4.07234C29.5644 3.12675 28.7949 2.35724 27.8493 2.35724Z" fill="black"/>
<path d="M24.076 27.0547H19.4453V24.5392H10.4124V27.0547H5.78162C5.30825 27.0547 4.92407 27.4388 4.92407 27.9122C4.92407 28.3856 5.30825 28.7698 5.78162 28.7698H24.076C24.5494 28.7698 24.9336 28.3856 24.9336 27.9122C24.9336 27.4388 24.5494 27.0547 24.076 27.0547Z" fill="black"/>
</g>
<defs>
<clipPath id="clip0_1008_470">
<rect width="29.2711" height="29.2711" fill="white" transform="translate(0.293335 0.927979)"/>
</clipPath>
</defs>
</svg>
