<svg width="34" height="34" viewBox="0 0 34 34" fill="none" xmlns="http://www.w3.org/2000/svg">
<g opacity="0.1" clip-path="url(#clip0_1008_466)">
<path d="M10.6213 33.1221H23.6938C25.2981 33.1221 26.5989 31.8215 26.5989 30.217V2.91006C26.5989 1.30553 25.2981 0.00500488 23.6938 0.00500488L10.6213 0.00500488C9.01706 0.00500488 7.71625 1.30553 7.71625 2.91006L7.71625 30.217C7.71625 31.8214 9.01706 33.1221 10.6213 33.1221ZM18.4186 31.2708H15.8964C15.5807 31.2708 15.3252 31.0151 15.3252 30.6996C15.3252 30.3842 15.5807 30.1285 15.8964 30.1285H18.4186C18.7343 30.1285 18.9898 30.3842 18.9898 30.6996C18.9898 31.0151 18.7343 31.2708 18.4186 31.2708ZM14.3196 1.82043L19.9954 1.82043C20.1432 1.82043 20.2632 1.94023 20.2632 2.08816C20.2632 2.23609 20.1432 2.35589 19.9954 2.35589L14.3196 2.35589C14.1718 2.35589 14.0518 2.23609 14.0518 2.08816C14.0518 1.94023 14.1718 1.82043 14.3196 1.82043ZM9.12558 4.15276L25.1894 4.15276V28.9742H9.12558L9.12558 4.15276Z" fill="black"/>
</g>
<defs>
<clipPath id="clip0_1008_466">
<rect width="33.1171" height="33.1171" fill="white" transform="translate(0.59906 0.00500488)"/>
</clipPath>
</defs>
</svg>
