<svg width="25" height="33" fill="none" xmlns="http://www.w3.org/2000/svg"><path d="M24.09 19.028c-.367-4.772-2.59-7.763-4.55-10.402-1.814-2.443-3.382-4.553-3.382-7.666a.668.668 0 00-1.055-.542c-2.944 2.107-5.4 5.657-6.258 9.045-.596 2.359-.675 5.01-.686 6.761-2.719-.58-3.334-4.647-3.341-4.692a.67.67 0 00-.347-.494.663.663 0 00-.604-.011c-.143.069-3.5 1.774-3.695 8.584-.014.227-.014.454-.014.681 0 6.616 5.383 12 12 12h.035c6.6-.02 11.965-5.395 11.965-12 0-.332-.069-1.264-.069-1.264z" fill="#FF6B00"/><path d="M12.158 30.792c-3.309 0-6-2.876-6-6.41 0-.121-.001-.243.008-.392.04-1.49.322-2.508.632-3.185.58 1.25 1.617 2.399 3.301 2.399.553 0 1-.449 1-1.003 0-1.428.03-3.076.384-4.563.316-1.318 1.07-2.721 2.024-3.846.425 1.46 1.253 2.641 2.062 3.794 1.157 1.65 2.353 3.355 2.563 6.264.013.172.026.345.026.531 0 3.535-2.692 6.411-6 6.411z" fill="#FFD66B"/></svg>