<svg width="42" height="42" fill="none" xmlns="http://www.w3.org/2000/svg"><path d="M40.723 15.888l-3.156-.686a17.17 17.17 0 00-1.016-2.45l1.747-2.717a1.227 1.227 0 00-.164-1.531l-4.917-4.917a1.227 1.227 0 00-1.53-.164l-2.72 1.747a17.18 17.18 0 00-2.449-1.016L25.833.998a1.227 1.227 0 00-1.199-.966h-6.953c-.577 0-1.076.402-1.199.966l-.686 3.156c-.84.275-1.66.615-2.45 1.016L10.63 3.423a1.227 1.227 0 00-1.531.164L4.18 8.504a1.227 1.227 0 00-.164 1.53l1.747 2.719c-.401.79-.741 1.609-1.016 2.449l-3.156.686a1.227 1.227 0 00-.966 1.199v6.953c0 .577.402 1.076.966 1.2l3.156.685c.275.84.615 1.66 1.016 2.45l-1.747 2.717a1.227 1.227 0 00.164 1.531l4.917 4.917a1.227 1.227 0 001.53.165l2.719-1.748c.79.402 1.609.742 2.449 1.016l.686 3.156c.123.564.622.966 1.199.966h6.953c.577 0 1.077-.402 1.2-.966l.685-3.156c.84-.274 1.66-.614 2.45-1.016l2.717 1.748a1.227 1.227 0 001.531-.165l4.917-4.917a1.227 1.227 0 00.164-1.53l-1.747-2.718c.402-.79.742-1.61 1.016-2.45l3.156-.686c.564-.123.966-.622.966-1.199v-6.953c0-.577-.402-1.076-.966-1.199zM28.52 20.564c0 4.059-3.303 7.361-7.362 7.361-4.06 0-7.362-3.302-7.362-7.361 0-4.06 3.302-7.362 7.362-7.362 4.059 0 7.361 3.302 7.361 7.362z" fill="#000"/></svg>