<svg width="26" height="25" fill="none" xmlns="http://www.w3.org/2000/svg"><g opacity=".1" clip-path="url(#clip0_1008_458)"><path d="M1.345 22.018H24.51a.546.546 0 00.546-.546v-.49l.002-.025a.542.542 0 00-.06-.247l-2.368-5.964V3.654a.546.546 0 00-.546-.545H3.77a.546.546 0 00-.545.545v11.092l-2.388 6.01a.55.55 0 00-.024.082l-.004.02a.538.538 0 00-.01.097v.517c0 .302.244.546.546.546zm9.235-1.761l.5-1.544h3.696l.5 1.544H10.58zM4.83 4.5h16.196v9.503H4.83V4.501z" fill="#000"/></g><defs><clipPath id="clip0_1008_458"><path fill="#fff" transform="translate(.799 .433)" d="M0 0h24.26v24.26H0z"/></clipPath></defs></svg>