<svg width="34" height="34" fill="none" xmlns="http://www.w3.org/2000/svg"><g opacity=".1" clip-path="url(#clip0_1008_466)"><path d="M10.621 33.122h13.073c1.604 0 2.905-1.3 2.905-2.905V2.91c0-1.604-1.3-2.905-2.905-2.905H10.62A2.905 2.905 0 007.716 2.91v27.307a2.905 2.905 0 002.905 2.905zm7.798-1.851h-2.523a.571.571 0 110-1.143h2.523a.571.571 0 110 1.143zm-4.1-29.45h5.676a.268.268 0 110 .535H14.32a.268.268 0 110-.536zM9.127 4.152H25.19v24.821H9.126V4.153z" fill="#000"/></g><defs><clipPath id="clip0_1008_466"><path fill="#fff" transform="translate(.6 .005)" d="M0 0h33.117v33.117H0z"/></clipPath></defs></svg>