<svg width="30" height="30" fill="none" xmlns="http://www.w3.org/2000/svg"><path d="M29.952 11.463c-.129-.44-.557-.791-1.028-.791l-9.64-.22-3.256-9.367C15.857.645 15.471.337 15 .337V.293a.999.999 0 00-.685.308.922.922 0 00-.343.484l-3.213 9.323-9.64.22c-.257 0-.514.131-.728.307-.171.132-.257.308-.343.528-.128.44 0 .968.386 1.275l7.711 6.025-2.784 9.5c-.129.483.042.967.428 1.23.214.132.428.22.643.22.214 0 .428-.088.642-.22L15 23.866l7.969 5.629c.17.131.428.22.642.22.214 0 .471-.089.643-.22.385-.264.557-.792.428-1.232l-2.827-9.499 7.711-6.025c.386-.307.514-.791.386-1.275zm-8.954 6.113l-.814.616.3.967 2.485 8.531-7.155-5.057-.814-.572V2.536l2.87 8.443.343.968.985.044 8.697.176-6.897 5.409z" fill="#FFD66B"/></svg>